<?xml version="1.0" standalone="no"?>
<!DOCTYPE svg PUBLIC "-//W3C//DTD SVG 20010904//EN"
 "http://www.w3.org/TR/2001/REC-SVG-20010904/DTD/svg10.dtd">
<svg version="1.0" xmlns="http://www.w3.org/2000/svg"
 width="2048.000000pt" height="2048.000000pt" viewBox="0 0 2048.000000 2048.000000"
 preserveAspectRatio="xMidYMid meet">

<g transform="translate(-740.000000,3000.000000) scale(0.210000,-0.210000)"
fill="rgb(45, 171, 255)" stroke="none">
<path d="M8275 13093 c-320 -40 -546 -101 -805 -218 -682 -309 -1200 -934
-1380 -1666 -15 -63 -31 -145 -35 -182 -4 -39 -12 -67 -19 -67 -6 0 -56 -7
-111 -15 -684 -98 -1326 -505 -1694 -1075 -351 -543 -462 -1185 -315 -1837 35
-158 83 -292 163 -458 197 -407 508 -743 913 -986 286 -171 595 -276 933 -314
125 -14 428 -15 2779 -13 l2639 3 -160 152 -159 152 -350 4 c-317 4 -357 6
-434 26 -239 61 -442 232 -520 439 l-18 47 -1873 5 -1874 6 -105 26 c-478 119
-855 443 -1048 898 -46 109 -64 169 -88 295 -25 124 -25 422 0 554 89 479 400
889 841 1106 252 124 473 174 765 175 328 0 627 -74 893 -223 121 -67 183 -87
273 -87 217 0 384 162 401 388 11 144 -62 297 -181 376 -154 102 -492 242
-716 296 -52 13 -96 24 -97 25 -6 4 49 209 77 290 108 303 329 589 600 774
160 110 388 209 563 245 221 46 497 46 712 2 161 -34 514 -158 562 -198 7 -6
16 -9 18 -6 2 2 -118 122 -268 265 -149 143 -398 383 -552 532 -154 149 -284
270 -290 270 -5 -1 -23 -4 -40 -6z"/>
<path d="M11385 11069 c-163 -24 -396 -119 -520 -214 -189 -143 -331 -331
-406 -536 -54 -147 -69 -253 -69 -490 l0 -209 213 2 212 3 5 215 c5 201 7 220
33 295 68 199 201 352 382 441 306 149 675 64 878 -204 123 -162 157 -286 157
-568 l0 -174 215 0 215 0 0 168 c0 271 -23 406 -99 581 -102 236 -304 457
-522 571 -206 107 -465 152 -694 119z"/>
<path d="M10285 9416 c-149 -36 -262 -153 -294 -304 -8 -37 -11 -320 -11 -933
0 -994 -2 -969 72 -1080 51 -76 114 -123 198 -149 64 -20 85 -20 1320 -18
l1255 3 60 29 c69 34 144 105 174 164 51 101 51 92 51 1039 0 607 -3 899 -11
935 -15 74 -74 181 -121 224 -22 20 -70 50 -107 68 l-66 31 -1235 2 c-946 1
-1247 -1 -1285 -11z m1392 -762 c102 -49 158 -143 157 -264 -1 -89 -25 -148
-85 -209 l-39 -39 0 -232 0 -233 -52 7 c-29 3 -104 6 -165 6 l-113 0 0 226 0
227 -35 38 c-77 85 -103 193 -71 301 26 91 114 174 211 199 48 13 136 1 192
-27z"/>
</g>
</svg>
